<svg width="25" height="25" viewBox="0 0 25 25" fill="none" xmlns="http://www.w3.org/2000/svg">
<path d="M6.19297 11.6237C6.26837 10.5776 7.13901 9.76746 8.18779 9.76746H16.5675C17.6162 9.76746 18.4869 10.5776 18.5623 11.6237L19.1272 19.4609C19.2106 20.6191 18.2935 21.6047 17.1323 21.6047H7.62291C6.46172 21.6047 5.54461 20.6191 5.62809 19.4609L6.19297 11.6237Z" fill="#F9F9F9" stroke="#D8D8D8" stroke-width="2"/>
<mask id="path-2-inside-1_796_482" fill="white">
<path fill-rule="evenodd" clip-rule="evenodd" d="M8.38824 10.7441V6.79065C8.38824 4.60719 10.1743 2.83716 12.3776 2.83716C14.5809 2.83716 16.367 4.60719 16.367 6.79065V10.7441"/>
</mask>
<path d="M10.3882 10.7441V6.79065H6.38824V10.7441H10.3882ZM10.3882 6.79065C10.3882 5.72876 11.2618 4.83716 12.3776 4.83716V0.837158C9.08684 0.837158 6.38824 3.48563 6.38824 6.79065H10.3882ZM12.3776 4.83716C13.4934 4.83716 14.367 5.72876 14.367 6.79065H18.367C18.367 3.48563 15.6684 0.837158 12.3776 0.837158V4.83716ZM14.367 6.79065V10.7441H18.367V6.79065H14.367Z" fill="#D8D8D8" mask="url(#path-2-inside-1_796_482)"/>
<rect x="8.38824" y="8.76746" width="1.99468" height="1.97674" fill="#F9F9F9"/>
<rect x="14.3723" y="8.76746" width="1.99468" height="1.97674" fill="#F9F9F9"/>
</svg>
