<svg width="25" height="25" viewBox="0 0 25 25" fill="none" xmlns="http://www.w3.org/2000/svg">
<g clip-path="url(#clip0_796_567)">
<path fill-rule="evenodd" clip-rule="evenodd" d="M19.859 20.6493V4.79265C19.859 4.25936 19.4257 3.82562 18.8935 3.82562H6.8622C6.3295 3.82562 5.89623 4.25936 5.89623 4.79265V20.6493C5.89623 21.1826 6.3295 21.6163 6.8622 21.6163H18.8935C19.4257 21.6163 19.859 21.1826 19.859 20.6493ZM19.4223 1.84888C20.7627 1.84888 21.8537 2.92247 21.8537 4.24205V21.1999C21.8537 22.5195 20.7627 23.5931 19.4223 23.5931H6.33337C4.99249 23.5931 3.90155 22.5195 3.90155 21.1999V4.24205C3.90155 2.92247 4.99249 1.84888 6.33337 1.84888H19.4223Z" fill="#2F69F8"/>
<rect x="7.89093" y="5.80237" width="6.98138" height="1.97674" rx="0.988372" fill="#FFB701"/>
<rect x="7.89093" y="9.75586" width="9.9734" height="1.97674" rx="0.988372" fill="#FFB701"/>
<rect x="7.89093" y="13.7094" width="9.9734" height="5.93023" rx="1" fill="#2F69F8"/>
</g>
<defs>
<clipPath id="clip0_796_567">
<rect width="23.9362" height="23.7209" fill="white" transform="translate(0.909546 0.860474)"/>
</clipPath>
</defs>
</svg>
