<svg width="25" height="25" viewBox="0 0 25 25" fill="none" xmlns="http://www.w3.org/2000/svg">
<path fill-rule="evenodd" clip-rule="evenodd" d="M19.859 20.6493V4.79265C19.859 4.25936 19.4258 3.82562 18.8935 3.82562H6.86225C6.32955 3.82562 5.89628 4.25936 5.89628 4.79265V20.6493C5.89628 21.1826 6.32955 21.6163 6.86225 21.6163H18.8935C19.4258 21.6163 19.859 21.1826 19.859 20.6493ZM19.4224 1.84888C20.7628 1.84888 21.8537 2.92247 21.8537 4.24205V21.1999C21.8537 22.5195 20.7628 23.5931 19.4224 23.5931H6.33342C4.99253 23.5931 3.9016 22.5195 3.9016 21.1999V4.24205C3.9016 2.92247 4.99253 1.84888 6.33342 1.84888H19.4224Z" fill="#D8D8D8"/>
<rect x="7.89096" y="5.80237" width="6.98138" height="1.97674" rx="0.988372" fill="#D8D8D8"/>
<rect x="7.89096" y="9.75586" width="9.9734" height="1.97674" rx="0.988372" fill="#D8D8D8"/>
<rect x="7.89096" y="14.6976" width="9.9734" height="4.94186" rx="1" fill="#D8D8D8"/>
</svg>
