<svg width="48" height="48" viewBox="0 0 48 48" fill="none" xmlns="http://www.w3.org/2000/svg">
<circle cx="24" cy="24" r="24" fill="#FFEAB6"/>
<mask id="path-2-inside-1_1088_424" fill="white">
<path d="M6 24C6 21.2386 8.23858 19 11 19H16V29H7C6.44772 29 6 28.5523 6 28V24Z"/>
</mask>
<path d="M6 24C6 21.2386 8.23858 19 11 19H16V29H7C6.44772 29 6 28.5523 6 28V24Z" stroke="#FFB701" stroke-width="4" mask="url(#path-2-inside-1_1088_424)"/>
<rect x="15" y="16" width="16" height="12" rx="1" stroke="#FFB701" stroke-width="2"/>
<rect x="34" y="15" width="9" height="2" rx="1" fill="#2F69F8"/>
<rect x="34" y="19" width="6" height="2" rx="1" fill="#FFB701"/>
<rect x="34" y="23" width="3" height="2" rx="1" fill="#2F69F8"/>
<rect x="18" y="19" width="6" height="5" rx="1" fill="#2F69F8"/>
<circle cx="25.5" cy="28.5" r="2.5" fill="#FFEAB6" stroke="#FFB701" stroke-width="2"/>
<circle cx="11.5" cy="28.5" r="2.5" fill="#FFEAB6" stroke="#FFB701" stroke-width="2"/>
</svg>
