<svg width="12" height="12" viewBox="0 0 12 12" fill="none" xmlns="http://www.w3.org/2000/svg">
<path fill-rule="evenodd" clip-rule="evenodd" d="M11.1334 2.56076C11.6865 2.00764 11.6836 1.12414 11.1368 0.577405C10.5863 0.026859 9.70213 0.0322194 9.15349 0.580864L5.85712 3.87724L2.56074 0.580864C2.00762 0.0277385 1.12412 0.0306708 0.577385 0.577405C0.026839 1.12795 0.0321994 2.01212 0.580844 2.56076L3.87722 5.85714L0.580844 9.15351C0.0277184 9.70663 0.0306507 10.5901 0.577385 11.1369C1.12793 11.6874 2.0121 11.6821 2.56074 11.1334L5.85712 7.83703L9.15349 11.1334C9.70661 11.6865 10.5901 11.6836 11.1368 11.1369C11.6874 10.5863 11.682 9.70215 11.1334 9.15351L7.83701 5.85714L11.1334 2.56076Z" fill="white"/>
</svg>
