<svg width="48" height="48" viewBox="0 0 48 48" fill="none" xmlns="http://www.w3.org/2000/svg">
<circle cx="24" cy="24" r="24" fill="#FFEAB6"/>
<rect x="15" y="20" width="18" height="4" stroke="#FFB701" stroke-width="2"/>
<path d="M16 24H32V32C32 32.5523 31.5523 33 31 33H17C16.4477 33 16 32.5523 16 32V24Z" stroke="#FFB701" stroke-width="2"/>
<path fill-rule="evenodd" clip-rule="evenodd" d="M27 15C26.104 15 25.2998 15.3928 24.7501 16.0156L24 16.7656L23.3068 16.0819C22.7565 15.4208 21.9274 15 21 15C19.3431 15 18 16.3431 18 18C18 19.6569 19.3431 21 21 21H23V34H25V21H27C28.6569 21 30 19.6569 30 18C30 16.3431 28.6569 15 27 15ZM27 19C27.5523 19 28 18.5523 28 18C28 17.4477 27.5523 17 27 17C26.4477 17 26 17.4477 26 18C26 18.5523 26.4477 19 27 19ZM21 19C21.5523 19 22 18.5523 22 18C22 17.4477 21.5523 17 21 17C20.4477 17 20 17.4477 20 18C20 18.5523 20.4477 19 21 19Z" fill="#2F69F8"/>
</svg>
