<svg width="130" height="8" viewBox="0 0 130 8" fill="none" xmlns="http://www.w3.org/2000/svg">
<path fill-rule="evenodd" clip-rule="evenodd" d="M6.04998 7.00002L5.52998 5.40002H3.10998L2.59998 7.00002H0.919983L3.46998 0.11002H5.17998L7.71998 7.00002H6.04998ZM3.53998 4.04002H5.08998L4.30998 1.63002L3.53998 4.04002ZM13.04 7.09002C11.62 7.09002 10.35 6.10002 10.35 4.51002V0.11002H11.92V4.39002C11.92 5.26002 12.47 5.60002 13.04 5.60002C13.6 5.60002 14.15 5.26002 14.15 4.39002V0.11002H15.72V4.51002C15.72 6.10002 14.46 7.09002 13.04 7.09002ZM23.95 0.11002V1.48002H22.13V7.00002H20.56V1.48002H18.74V0.11002H23.95ZM29.66 7.09002C28.24 7.09002 26.97 6.10002 26.97 4.51002V0.11002H28.54V4.39002C28.54 5.26002 29.09 5.60002 29.66 5.60002C30.22 5.60002 30.77 5.26002 30.77 4.39002V0.11002H32.34V4.51002C32.34 6.10002 31.08 7.09002 29.66 7.09002ZM43.93 7.00002H42.32L41.87 3.08002L40.37 6.21002H39.17L37.67 3.09002L37.21 7.00002H35.6L36.45 0.11002H37.76L39.77 4.42002L41.75 0.11002H43.09L43.93 7.00002ZM50.89 0.11002H52.46V7.00002H51.08L48.82 3.04002V7.00002H47.25V0.11002H48.69L50.89 4.02002V0.11002ZM60.57 7.00002V0.11002H62.14V7.00002H60.57ZM67.96 7.09002C66.49 7.09002 65.47 6.23002 65.47 4.96002H67.04C67.04 5.40002 67.48 5.74002 68.02 5.74002C68.53 5.74002 68.92 5.51002 68.92 5.06002C68.92 4.79002 68.77 4.54002 68.16 4.34002L67.34 4.09002C65.82 3.68002 65.53 2.75002 65.53 2.10002C65.53 0.860019 66.59 0.0200195 67.96 0.0200195C69.28 0.0200195 70.29 0.81002 70.29 2.15002H68.72C68.72 1.74002 68.47 1.39002 67.93 1.39002C67.44 1.39002 67.12 1.69002 67.12 2.07002C67.12 2.21002 67.16 2.52002 67.8 2.70002L68.52 2.92002C69.5 3.22002 70.5 3.73002 70.5 4.98002C70.5 6.46002 69.22 7.09002 67.96 7.09002ZM81.33 7.08002C79.39 7.08002 77.83 5.50002 77.83 3.54002C77.83 1.60002 79.39 0.0200195 81.33 0.0200195C82.54 0.0200195 83.6 0.630019 84.23 1.55002L83.01 2.40002C82.65 1.85002 82.12 1.51002 81.4 1.51002C80.24 1.51002 79.41 2.40002 79.41 3.54002C79.41 4.68002 80.21 5.60002 81.39 5.60002C82.12 5.60002 82.65 5.26002 83.01 4.70002L84.23 5.56002C83.6 6.48002 82.54 7.08002 81.33 7.08002ZM105.14 6.91002H103.53L103.08 2.99002L101.58 6.12002H100.38L98.88 3.00002L98.42 6.91002H96.81L97.66 0.0200195H98.97L100.98 4.33002L102.96 0.0200195H104.3L105.14 6.91002ZM108.81 6.91002V0.0200195H110.38V6.91002H108.81ZM117.45 0.0200195H119.02V6.91002H117.64L115.38 2.95002V6.91002H113.81V0.0200195H115.25L117.45 3.93002V0.0200195ZM126.35 7.09002C124.36 7.09002 122.81 5.50002 122.81 3.56002C122.81 1.60002 124.36 0.0200195 126.35 0.0200195C127.44 0.0200195 128.39 0.480019 128.99 1.20002L127.83 2.17002C127.46 1.74002 126.94 1.48002 126.35 1.48002C125.24 1.48002 124.39 2.41002 124.39 3.56002C124.39 4.69002 125.24 5.69002 126.35 5.69002C127.15 5.69002 127.77 5.37002 127.97 4.77002C127.99 4.72002 128.01 4.67002 128.02 4.61002H126.08V3.34002H129.73C129.73 5.95002 128.33 7.09002 126.35 7.09002Z" fill="white"/>
<path fill-rule="evenodd" clip-rule="evenodd" d="M90.41 7.09002C88.44 7.09002 86.89 5.50002 86.89 3.55002C86.89 1.60002 88.44 0.0200195 90.41 0.0200195C92.35 0.0200195 93.92 1.60002 93.92 3.55002C93.92 5.50002 92.35 7.09002 90.41 7.09002Z" fill="#FFB701"/>
</svg>
